<?xml version="1.0" encoding="utf-8"?>
<!-- Generator: Adobe Illustrator 24.3.0, SVG Export Plug-In . SVG Version: 6.00 Build 0)  -->
<svg version="1.1" id="Capa_1" xmlns="http://www.w3.org/2000/svg" xmlns:xlink="http://www.w3.org/1999/xlink" x="0px" y="0px"
	 viewBox="0 0 1796.1 188.7" style="enable-background:new 0 0 1796.1 188.7;" xml:space="preserve">
<style type="text/css">
	.st0{fill:#2C3E50;}
</style>
<g>
	<path class="st0" d="M575.2,102.5H8.2c-4.6,0-8.2-3.6-8.2-8.2l0,0c0-4.6,3.6-8.2,8.2-8.2h566.9c4.6,0,8.2,3.6,8.2,8.2l0,0
		C583.4,98.9,579.7,102.5,575.2,102.5z"/>
	<path class="st0" d="M1787.9,102.5h-567.1c-4.6,0-8.2-3.6-8.2-8.2l0,0c0-4.6,3.6-8.2,8.2-8.2h567.1c4.6,0,8.2,3.6,8.2,8.2l0,0
		C1796.1,98.9,1792.3,102.5,1787.9,102.5z"/>
	<path class="st0" d="M908,9.7c-1.9-3.9-5.8-6.4-10.2-6.4c-4.4,0-8.3,2.5-10.2,6.4l-22.8,47l-51.1,7.5c-4.3,0.7-7.9,3.6-9.1,7.8
		c-1.2,4.2-0.2,8.7,2.8,11.6l37.1,36.7l-8.8,51.8c-0.7,4.3,1,8.7,4.6,11.1c3.5,2.5,8.2,2.8,12,0.8l45.7-24.4l45.7,24.4
		c3.8,2,8.5,1.7,12-0.8s5.3-6.9,4.6-11.1l-8.8-51.8l37.1-36.7c3-3,4.2-7.5,2.8-11.6c-1.3-4-4.8-7.1-9.1-7.8l-51.1-7.5L908,9.7z"/>
</g>
</svg>
